<svg width="23" height="24" viewBox="0 0 23 24" fill="none" xmlns="http://www.w3.org/2000/svg">
<path d="M18.1219 2.72412V5.55012ZM18.1219 8.37612V5.55012ZM18.1219 5.55012H20.9479ZM18.1219 5.55012H15.2959Z" fill="url(#paint0_linear_995_844)"/>
<path d="M18.1219 2.72412V5.55012M18.1219 5.55012V8.37612M18.1219 5.55012H20.9479M18.1219 5.55012H15.2959" stroke="#977BF6" stroke-width="1.884" stroke-linecap="round" stroke-linejoin="round"/>
<path fill-rule="evenodd" clip-rule="evenodd" d="M12.4699 3.66612C12.4699 3.14587 12.0482 2.72412 11.5279 2.72412H4.93391C4.18441 2.72412 3.4656 3.02186 2.93563 3.55184C2.40565 4.08182 2.10791 4.80062 2.10791 5.55012V15.4411C2.10791 15.5221 2.11827 15.6013 2.13805 15.6766C2.11811 15.7535 2.10799 15.8327 2.10791 15.9121V18.7381C2.10791 19.4876 2.40565 20.2064 2.93563 20.7364C3.4656 21.2664 4.18441 21.5641 4.93391 21.5641H18.1219C18.8714 21.5641 19.5902 21.2664 20.1202 20.7364C20.6502 20.2064 20.9479 19.4876 20.9479 18.7381V12.1441V12.1441C20.9478 11.988 20.9478 11.8292 20.9479 11.6731V11.6731V11.6731C20.9479 11.413 20.737 11.2021 20.4769 11.2021H19.0639V11.2172C15.0161 11.3481 12.0931 12.3231 10.0396 13.6881C10.8176 13.9641 11.6881 14.3569 12.5415 14.8712C13.8594 15.6625 15.1989 16.7741 16.1004 18.2464C16.165 18.3519 16.2081 18.4691 16.2274 18.5913C16.2467 18.7135 16.2417 18.8383 16.2127 18.9586C16.1838 19.0789 16.1314 19.1923 16.0586 19.2923C15.9859 19.3923 15.8941 19.4771 15.7886 19.5416C15.6831 19.6062 15.5658 19.6494 15.4436 19.6687C15.3214 19.6879 15.1967 19.683 15.0764 19.654C14.9561 19.625 14.8427 19.5727 14.7427 19.4999C14.6426 19.4271 14.5579 19.3354 14.4933 19.2298C13.8 18.0966 12.7243 17.1782 11.5712 16.4858C10.4201 15.7944 9.24921 15.3629 8.43721 15.1745C7.29335 14.9133 6.12212 14.7912 4.94898 14.8109H4.92826C4.60044 14.8156 4.2877 14.8298 3.99191 14.8533V5.55012C3.99191 5.30029 4.09116 5.06069 4.26782 4.88403C4.44448 4.70737 4.68408 4.60812 4.93391 4.60812H11.5279C12.0482 4.60812 12.4699 4.18637 12.4699 3.66612V3.66612Z" fill="url(#paint1_linear_995_844)"/>
<path d="M6.79725 6.95188C7.21728 6.65639 7.71744 6.49603 8.23098 6.49219C8.74457 6.49567 9.24484 6.65607 9.6647 6.95188C10.2016 7.33905 10.586 7.9749 10.586 8.84719C10.586 9.71948 10.2016 10.3553 9.6647 10.7415C9.1758 11.0939 8.6172 11.2022 8.23098 11.2022C7.71728 11.1984 7.21701 11.0377 6.79725 10.7415C6.26031 10.3553 5.87598 9.71948 5.87598 8.84719C5.87598 7.9749 6.26031 7.3381 6.79725 6.95188Z" fill="url(#paint2_linear_995_844)"/>
<defs>
<linearGradient id="paint0_linear_995_844" x1="20.9479" y1="5.55012" x2="15.2959" y2="5.55012" gradientUnits="userSpaceOnUse">
<stop stop-color="#6193FF"/>
<stop offset="1" stop-color="#9556FF"/>
</linearGradient>
<linearGradient id="paint1_linear_995_844" x1="20.9479" y1="12.1441" x2="2.10791" y2="12.1441" gradientUnits="userSpaceOnUse">
<stop stop-color="#6193FF"/>
<stop offset="1" stop-color="#9556FF"/>
</linearGradient>
<linearGradient id="paint2_linear_995_844" x1="10.586" y1="8.84719" x2="5.87598" y2="8.84719" gradientUnits="userSpaceOnUse">
<stop stop-color="#6193FF"/>
<stop offset="1" stop-color="#9556FF"/>
</linearGradient>
</defs>
</svg>
